<mxfile host="app.diagrams.net" agent="Mozilla/5.0 (Macintosh; Intel Mac OS X 10_15_7) AppleWebKit/537.36 (KHTML, like Gecko) Chrome/140.0.0.0 Safari/537.36" version="28.2.5">
  <diagram name="Page-1" id="Em7ZIiOP1FmjBt_bHOIL">
    <mxGraphModel dx="3731" dy="2311" grid="1" gridSize="10" guides="1" tooltips="1" connect="1" arrows="1" fold="1" page="1" pageScale="1" pageWidth="850" pageHeight="1100" math="0" shadow="0">
      <root>
        <mxCell id="0" />
        <mxCell id="1" parent="0" />
        <mxCell id="start" value="เริ่มต้น" style="strokeWidth=2;html=1;shape=mxgraph.flowchart.start_1;whiteSpace=wrap;" vertex="1" parent="1">
          <mxGeometry x="185" y="50" width="100" height="60" as="geometry" />
        </mxCell>
        <mxCell id="id-init" value="กำหนดตัวแปร: id (10 ตัว), hrs = 0, salary = 0" style="whiteSpace=wrap;html=1;strokeWidth=2;" vertex="1" parent="1">
          <mxGeometry x="130" y="150" width="210" height="60" as="geometry" />
        </mxCell>
        <mxCell id="id-out1" value="แสดง: &quot;ป้อนรหัสพนักงาน (Max. 10 chars):&quot;" style="shape=parallelogram;perimeter=parallelogramPerimeter;whiteSpace=wrap;html=1;fixedSize=1;" vertex="1" parent="1">
          <mxGeometry x="90" y="250" width="290" height="60" as="geometry" />
        </mxCell>
        <mxCell id="id-in1" value="รับค่า `id`" style="shape=parallelogram;perimeter=parallelogramPerimeter;whiteSpace=wrap;html=1;fixedSize=1;" vertex="1" parent="1">
          <mxGeometry x="165" y="350" width="140" height="60" as="geometry" />
        </mxCell>
        <mxCell id="id-cond" value="ป้อนค่า `id` ไม่สำเร็จ?" style="rhombus;whiteSpace=wrap;html=1;" vertex="1" parent="1">
          <mxGeometry x="140" y="450" width="190" height="80" as="geometry" />
        </mxCell>
        <mxCell id="zBBQvjqYQoTLJ-VpjZjz-70" style="edgeStyle=orthogonalEdgeStyle;rounded=0;orthogonalLoop=1;jettySize=auto;html=1;exitX=1;exitY=0.5;exitDx=0;exitDy=0;entryX=0;entryY=0.5;entryDx=0;entryDy=0;" edge="1" parent="1" source="id-err-out" target="zBBQvjqYQoTLJ-VpjZjz-69">
          <mxGeometry relative="1" as="geometry" />
        </mxCell>
        <mxCell id="id-err-out" value="แสดง: &quot;ป้อนข้อมูลรหัสพนักงานไม่ถูกต้อง&quot;" style="shape=parallelogram;perimeter=parallelogramPerimeter;whiteSpace=wrap;html=1;fixedSize=1;" vertex="1" parent="1">
          <mxGeometry x="410" y="460" width="250" height="60" as="geometry" />
        </mxCell>
        <mxCell id="hrs-out1" value="แสดง: &quot;ป้อนชั่วโมงทำงาน:&quot;" style="shape=parallelogram;perimeter=parallelogramPerimeter;whiteSpace=wrap;html=1;fixedSize=1;" vertex="1" parent="1">
          <mxGeometry x="120" y="570" width="230" height="60" as="geometry" />
        </mxCell>
        <mxCell id="hrs-in1" value="รับค่า `hrs`" style="shape=parallelogram;perimeter=parallelogramPerimeter;whiteSpace=wrap;html=1;fixedSize=1;" vertex="1" parent="1">
          <mxGeometry x="165" y="670" width="140" height="60" as="geometry" />
        </mxCell>
        <mxCell id="hrs-cond" value="ป้อนค่า `hrs` ไม่สำเร็จ?" style="rhombus;whiteSpace=wrap;html=1;" vertex="1" parent="1">
          <mxGeometry x="140" y="770" width="190" height="80" as="geometry" />
        </mxCell>
        <mxCell id="zBBQvjqYQoTLJ-VpjZjz-72" style="edgeStyle=orthogonalEdgeStyle;rounded=0;orthogonalLoop=1;jettySize=auto;html=1;exitX=1;exitY=0.5;exitDx=0;exitDy=0;entryX=0;entryY=0.5;entryDx=0;entryDy=0;" edge="1" parent="1" source="hrs-err-out" target="zBBQvjqYQoTLJ-VpjZjz-68">
          <mxGeometry relative="1" as="geometry" />
        </mxCell>
        <mxCell id="hrs-err-out" value="แสดง: &quot;ป้อนข้อมูลชั่วโมงทำงานไม่ถูกต้อง&quot;" style="shape=parallelogram;perimeter=parallelogramPerimeter;whiteSpace=wrap;html=1;fixedSize=1;" vertex="1" parent="1">
          <mxGeometry x="410" y="780" width="250" height="60" as="geometry" />
        </mxCell>
        <mxCell id="sal-out1" value="แสดง: &quot;ป้อนค่าจ้าง/ชั่วโมง:&quot;" style="shape=parallelogram;perimeter=parallelogramPerimeter;whiteSpace=wrap;html=1;fixedSize=1;" vertex="1" parent="1">
          <mxGeometry x="120" y="890" width="230" height="60" as="geometry" />
        </mxCell>
        <mxCell id="sal-in1" value="รับค่า `salary`" style="shape=parallelogram;perimeter=parallelogramPerimeter;whiteSpace=wrap;html=1;fixedSize=1;" vertex="1" parent="1">
          <mxGeometry x="165" y="990" width="140" height="60" as="geometry" />
        </mxCell>
        <mxCell id="sal-cond" value="ป้อนค่า `salary` ไม่สำเร็จ?" style="rhombus;whiteSpace=wrap;html=1;" vertex="1" parent="1">
          <mxGeometry x="140" y="1090" width="190" height="80" as="geometry" />
        </mxCell>
        <mxCell id="zBBQvjqYQoTLJ-VpjZjz-74" style="edgeStyle=orthogonalEdgeStyle;rounded=0;orthogonalLoop=1;jettySize=auto;html=1;exitX=1;exitY=0.5;exitDx=0;exitDy=0;entryX=0;entryY=0.5;entryDx=0;entryDy=0;" edge="1" parent="1" source="sal-err-out" target="zBBQvjqYQoTLJ-VpjZjz-67">
          <mxGeometry relative="1" as="geometry" />
        </mxCell>
        <mxCell id="sal-err-out" value="แสดง: &quot;ป้อนข้อมูลค่าจ้างไม่ถูกต้อง&quot;" style="shape=parallelogram;perimeter=parallelogramPerimeter;whiteSpace=wrap;html=1;fixedSize=1;" vertex="1" parent="1">
          <mxGeometry x="410" y="1100" width="250" height="60" as="geometry" />
        </mxCell>
        <mxCell id="sep-out" value="แสดง: &quot;- - - - - -&quot;" style="shape=parallelogram;perimeter=parallelogramPerimeter;whiteSpace=wrap;html=1;fixedSize=1;" vertex="1" parent="1">
          <mxGeometry x="155" y="1210" width="160" height="60" as="geometry" />
        </mxCell>
        <mxCell id="zBBQvjqYQoTLJ-VpjZjz-62" style="edgeStyle=orthogonalEdgeStyle;rounded=0;orthogonalLoop=1;jettySize=auto;html=1;exitX=0.5;exitY=1;exitDx=0;exitDy=0;entryX=0.5;entryY=0;entryDx=0;entryDy=0;" edge="1" parent="1" source="core-cond" target="success-proc">
          <mxGeometry relative="1" as="geometry" />
        </mxCell>
        <mxCell id="zBBQvjqYQoTLJ-VpjZjz-63" style="edgeStyle=orthogonalEdgeStyle;rounded=0;orthogonalLoop=1;jettySize=auto;html=1;exitX=1;exitY=0.5;exitDx=0;exitDy=0;entryX=0;entryY=0.5;entryDx=0;entryDy=0;" edge="1" parent="1" source="core-cond" target="core-err-out">
          <mxGeometry relative="1" as="geometry" />
        </mxCell>
        <mxCell id="core-cond" value="`hrs &gt; 0` และ `salary &gt; 0`?" style="rhombus;whiteSpace=wrap;html=1;" vertex="1" parent="1">
          <mxGeometry x="120" y="1290" width="230" height="80" as="geometry" />
        </mxCell>
        <mxCell id="success-proc" value="คำนวณ: salary = hrs * salary" style="whiteSpace=wrap;html=1;" vertex="1" parent="1">
          <mxGeometry x="145" y="1400" width="180" height="60" as="geometry" />
        </mxCell>
        <mxCell id="success-out1" value="แสดง: &quot;ผลลัพธ์ที่คาดหวัง:&quot;" style="shape=parallelogram;perimeter=parallelogramPerimeter;whiteSpace=wrap;html=1;fixedSize=1;" vertex="1" parent="1">
          <mxGeometry x="145" y="1500" width="180" height="60" as="geometry" />
        </mxCell>
        <mxCell id="success-out2" value="แสดง: &quot;รหัสพนักงาน = &quot; + `id`" style="shape=parallelogram;perimeter=parallelogramPerimeter;whiteSpace=wrap;html=1;fixedSize=1;" vertex="1" parent="1">
          <mxGeometry x="145" y="1600" width="180" height="60" as="geometry" />
        </mxCell>
        <mxCell id="success-out3" value="แสดง: &quot;เงินเดือน = U$ &quot; + `salary`" style="shape=parallelogram;perimeter=parallelogramPerimeter;whiteSpace=wrap;html=1;fixedSize=1;" vertex="1" parent="1">
          <mxGeometry x="145" y="1700" width="180" height="60" as="geometry" />
        </mxCell>
        <mxCell id="zBBQvjqYQoTLJ-VpjZjz-76" style="edgeStyle=orthogonalEdgeStyle;rounded=0;orthogonalLoop=1;jettySize=auto;html=1;exitX=1;exitY=0.5;exitDx=0;exitDy=0;entryX=0;entryY=0.5;entryDx=0;entryDy=0;" edge="1" parent="1" source="core-err-out" target="zBBQvjqYQoTLJ-VpjZjz-66">
          <mxGeometry relative="1" as="geometry" />
        </mxCell>
        <mxCell id="core-err-out" value="แสดง: &quot;ข้อผิดพลาด: ชั่วโมงและค่าจ้างต้องเป็นบวก&quot;" style="shape=parallelogram;perimeter=parallelogramPerimeter;whiteSpace=wrap;html=1;fixedSize=1;" vertex="1" parent="1">
          <mxGeometry x="410" y="1300" width="290" height="60" as="geometry" />
        </mxCell>
        <mxCell id="stop-final" value="สิ้นสุด" style="strokeWidth=2;html=1;shape=mxgraph.flowchart.start_1;whiteSpace=wrap;" vertex="1" parent="1">
          <mxGeometry x="185" y="2000" width="100" height="60" as="geometry" />
        </mxCell>
        <mxCell id="edge-1" style="edgeStyle=orthogonalEdgeStyle;rounded=0;orthogonalLoop=1;jettySize=auto;html=1;entryX=0.5;entryY=0;entryDx=0;entryDy=0;" edge="1" parent="1" source="start" target="id-init">
          <mxGeometry relative="1" as="geometry" />
        </mxCell>
        <mxCell id="edge-2" style="edgeStyle=orthogonalEdgeStyle;rounded=0;orthogonalLoop=1;jettySize=auto;html=1;entryX=0.5;entryY=0;entryDx=0;entryDy=0;" edge="1" parent="1" source="id-init" target="id-out1">
          <mxGeometry relative="1" as="geometry" />
        </mxCell>
        <mxCell id="edge-3" style="edgeStyle=orthogonalEdgeStyle;rounded=0;orthogonalLoop=1;jettySize=auto;html=1;entryX=0.5;entryY=0;entryDx=0;entryDy=0;" edge="1" parent="1" source="id-out1" target="id-in1">
          <mxGeometry relative="1" as="geometry" />
        </mxCell>
        <mxCell id="edge-4" style="edgeStyle=orthogonalEdgeStyle;rounded=0;orthogonalLoop=1;jettySize=auto;html=1;entryX=0.5;entryY=0;entryDx=0;entryDy=0;" edge="1" parent="1" source="id-in1" target="id-cond">
          <mxGeometry relative="1" as="geometry" />
        </mxCell>
        <mxCell id="edge-5" value="จริง (True)" style="edgeStyle=orthogonalEdgeStyle;rounded=0;orthogonalLoop=1;jettySize=auto;html=1;exitX=1;exitY=0.5;exitDx=0;exitDy=0;" edge="1" parent="1" source="id-cond" target="id-err-out">
          <mxGeometry relative="1" as="geometry">
            <mxPoint x="330" y="490" as="sourcePoint" />
            <Array as="points">
              <mxPoint x="390" y="490" />
              <mxPoint x="390" y="490" />
            </Array>
          </mxGeometry>
        </mxCell>
        <mxCell id="edge-6" value="เท็จ (False)" style="edgeStyle=orthogonalEdgeStyle;rounded=0;orthogonalLoop=1;jettySize=auto;html=1;entryX=0.5;entryY=0;entryDx=0;entryDy=0;" edge="1" parent="1" source="id-cond" target="hrs-out1">
          <mxGeometry relative="1" as="geometry" />
        </mxCell>
        <mxCell id="edge-9" style="edgeStyle=orthogonalEdgeStyle;rounded=0;orthogonalLoop=1;jettySize=auto;html=1;entryX=0.5;entryY=0;entryDx=0;entryDy=0;" edge="1" parent="1" source="hrs-out1" target="hrs-in1">
          <mxGeometry relative="1" as="geometry" />
        </mxCell>
        <mxCell id="edge-10" style="edgeStyle=orthogonalEdgeStyle;rounded=0;orthogonalLoop=1;jettySize=auto;html=1;entryX=0.5;entryY=0;entryDx=0;entryDy=0;" edge="1" parent="1" source="hrs-in1" target="hrs-cond">
          <mxGeometry relative="1" as="geometry" />
        </mxCell>
        <mxCell id="edge-11" value="จริง (True)" style="edgeStyle=orthogonalEdgeStyle;rounded=0;orthogonalLoop=1;jettySize=auto;html=1;exitX=1;exitY=0.5;exitDx=0;exitDy=0;" edge="1" parent="1" source="hrs-cond" target="hrs-err-out">
          <mxGeometry relative="1" as="geometry">
            <mxPoint x="330" y="810" as="sourcePoint" />
            <Array as="points">
              <mxPoint x="390" y="810" />
              <mxPoint x="390" y="810" />
            </Array>
          </mxGeometry>
        </mxCell>
        <mxCell id="edge-12" value="เท็จ (False)" style="edgeStyle=orthogonalEdgeStyle;rounded=0;orthogonalLoop=1;jettySize=auto;html=1;entryX=0.5;entryY=0;entryDx=0;entryDy=0;" edge="1" parent="1" source="hrs-cond" target="sal-out1">
          <mxGeometry relative="1" as="geometry" />
        </mxCell>
        <mxCell id="edge-15" style="edgeStyle=orthogonalEdgeStyle;rounded=0;orthogonalLoop=1;jettySize=auto;html=1;entryX=0.5;entryY=0;entryDx=0;entryDy=0;" edge="1" parent="1" source="sal-out1" target="sal-in1">
          <mxGeometry relative="1" as="geometry" />
        </mxCell>
        <mxCell id="edge-16" style="edgeStyle=orthogonalEdgeStyle;rounded=0;orthogonalLoop=1;jettySize=auto;html=1;entryX=0.5;entryY=0;entryDx=0;entryDy=0;" edge="1" parent="1" source="sal-in1" target="sal-cond">
          <mxGeometry relative="1" as="geometry" />
        </mxCell>
        <mxCell id="edge-17" value="จริง (True)" style="edgeStyle=orthogonalEdgeStyle;rounded=0;orthogonalLoop=1;jettySize=auto;html=1;exitX=1;exitY=0.5;exitDx=0;exitDy=0;" edge="1" parent="1" source="sal-cond" target="sal-err-out">
          <mxGeometry relative="1" as="geometry">
            <mxPoint x="330" y="1130" as="sourcePoint" />
            <Array as="points">
              <mxPoint x="390" y="1130" />
              <Point x="580" y="1110" />
            </Array>
          </mxGeometry>
        </mxCell>
        <mxCell id="edge-18" value="เท็จ (False)" style="edgeStyle=orthogonalEdgeStyle;rounded=0;orthogonalLoop=1;jettySize=auto;html=1;entryX=0.5;entryY=0;entryDx=0;entryDy=0;" edge="1" parent="1" source="sal-cond" target="sep-out">
          <mxGeometry relative="1" as="geometry" />
        </mxCell>
        <mxCell id="edge-21" style="edgeStyle=orthogonalEdgeStyle;rounded=0;orthogonalLoop=1;jettySize=auto;html=1;entryX=0.5;entryY=0;entryDx=0;entryDy=0;" edge="1" parent="1" source="sep-out" target="core-cond">
          <mxGeometry relative="1" as="geometry" />
        </mxCell>
        <mxCell id="edge-22" value="จริง (True)" style="edgeStyle=orthogonalEdgeStyle;rounded=0;orthogonalLoop=1;jettySize=auto;html=1;exitX=0;exitY=0.5;exitDx=0;exitDy=0;entryX=0.5;entryY=0;entryDx=0;entryDy=0;" edge="1" parent="1" source="core-cond" target="success-proc">
          <mxGeometry relative="1" as="geometry">
            <Array as="points">
              <mxPoint x="310" y="1330" />
              <Point x="190" y="1330" />
            </Array>
          </mxGeometry>
        </mxCell>
        <mxCell id="edge-23" value="เท็จ (False)" style="edgeStyle=orthogonalEdgeStyle;rounded=0;orthogonalLoop=1;jettySize=auto;html=1;exitX=1;exitY=0.5;exitDx=0;exitDy=0;entryX=0.5;entryY=0;entryDx=0;entryDy=0;" edge="1" parent="1" source="core-cond" target="core-err-out">
          <mxGeometry relative="1" as="geometry">
            <Array as="points">
              <mxPoint x="540" y="1330" />
              <Point x="725" y="1330" />
            </Array>
          </mxGeometry>
        </mxCell>
        <mxCell id="edge-24" style="edgeStyle=orthogonalEdgeStyle;rounded=0;orthogonalLoop=1;jettySize=auto;html=1;entryX=0.5;entryY=0;entryDx=0;entryDy=0;" edge="1" parent="1" source="success-proc" target="success-out1">
          <mxGeometry relative="1" as="geometry" />
        </mxCell>
        <mxCell id="edge-25" style="edgeStyle=orthogonalEdgeStyle;rounded=0;orthogonalLoop=1;jettySize=auto;html=1;entryX=0.5;entryY=0;entryDx=0;entryDy=0;" edge="1" parent="1" source="success-out1" target="success-out2">
          <mxGeometry relative="1" as="geometry" />
        </mxCell>
        <mxCell id="edge-26" style="edgeStyle=orthogonalEdgeStyle;rounded=0;orthogonalLoop=1;jettySize=auto;html=1;entryX=0.5;entryY=0;entryDx=0;entryDy=0;" edge="1" parent="1" source="success-out2" target="success-out3">
          <mxGeometry relative="1" as="geometry" />
        </mxCell>
        <mxCell id="edge-27" style="edgeStyle=orthogonalEdgeStyle;rounded=0;orthogonalLoop=1;jettySize=auto;html=1;entryX=0.5;entryY=0;entryDx=0;entryDy=0;" edge="1" parent="1" source="success-out3">
          <mxGeometry relative="1" as="geometry">
            <mxPoint x="235" y="1800" as="targetPoint" />
          </mxGeometry>
        </mxCell>
        <mxCell id="edge-32" style="edgeStyle=orthogonalEdgeStyle;rounded=0;orthogonalLoop=1;jettySize=auto;html=1;exitX=0.5;exitY=1;exitDx=0;exitDy=0;entryX=0.5;entryY=0;entryDx=0;entryDy=0;" edge="1" parent="1" target="stop-final">
          <mxGeometry relative="1" as="geometry">
            <Array as="points">
              <mxPoint x="725" y="1880" />
              <Point x="425" y="1880" />
            </Array>
            <mxPoint x="725" y="1850" as="sourcePoint" />
          </mxGeometry>
        </mxCell>
        <mxCell id="zBBQvjqYQoTLJ-VpjZjz-64" value="" style="ellipse;whiteSpace=wrap;html=1;aspect=fixed;" vertex="1" parent="1">
          <mxGeometry x="215" y="1810" width="40" height="40" as="geometry" />
        </mxCell>
        <mxCell id="zBBQvjqYQoTLJ-VpjZjz-78" style="edgeStyle=orthogonalEdgeStyle;rounded=0;orthogonalLoop=1;jettySize=auto;html=1;exitX=0;exitY=0.5;exitDx=0;exitDy=0;entryX=1;entryY=0.5;entryDx=0;entryDy=0;" edge="1" parent="1" source="zBBQvjqYQoTLJ-VpjZjz-65" target="zBBQvjqYQoTLJ-VpjZjz-64">
          <mxGeometry relative="1" as="geometry" />
        </mxCell>
        <mxCell id="zBBQvjqYQoTLJ-VpjZjz-65" value="" style="ellipse;whiteSpace=wrap;html=1;aspect=fixed;" vertex="1" parent="1">
          <mxGeometry x="770" y="1810" width="40" height="40" as="geometry" />
        </mxCell>
        <mxCell id="zBBQvjqYQoTLJ-VpjZjz-77" style="edgeStyle=orthogonalEdgeStyle;rounded=0;orthogonalLoop=1;jettySize=auto;html=1;exitX=0.5;exitY=1;exitDx=0;exitDy=0;entryX=0.5;entryY=0;entryDx=0;entryDy=0;" edge="1" parent="1" source="zBBQvjqYQoTLJ-VpjZjz-66" target="zBBQvjqYQoTLJ-VpjZjz-65">
          <mxGeometry relative="1" as="geometry" />
        </mxCell>
        <mxCell id="zBBQvjqYQoTLJ-VpjZjz-66" value="" style="ellipse;whiteSpace=wrap;html=1;aspect=fixed;" vertex="1" parent="1">
          <mxGeometry x="770" y="1310" width="40" height="40" as="geometry" />
        </mxCell>
        <mxCell id="zBBQvjqYQoTLJ-VpjZjz-75" style="edgeStyle=orthogonalEdgeStyle;rounded=0;orthogonalLoop=1;jettySize=auto;html=1;exitX=0.5;exitY=1;exitDx=0;exitDy=0;" edge="1" parent="1" source="zBBQvjqYQoTLJ-VpjZjz-67" target="zBBQvjqYQoTLJ-VpjZjz-66">
          <mxGeometry relative="1" as="geometry" />
        </mxCell>
        <mxCell id="zBBQvjqYQoTLJ-VpjZjz-67" value="" style="ellipse;whiteSpace=wrap;html=1;aspect=fixed;" vertex="1" parent="1">
          <mxGeometry x="770" y="1110" width="40" height="40" as="geometry" />
        </mxCell>
        <mxCell id="zBBQvjqYQoTLJ-VpjZjz-73" style="edgeStyle=orthogonalEdgeStyle;rounded=0;orthogonalLoop=1;jettySize=auto;html=1;exitX=0.5;exitY=1;exitDx=0;exitDy=0;entryX=0.5;entryY=0;entryDx=0;entryDy=0;" edge="1" parent="1" source="zBBQvjqYQoTLJ-VpjZjz-68" target="zBBQvjqYQoTLJ-VpjZjz-67">
          <mxGeometry relative="1" as="geometry" />
        </mxCell>
        <mxCell id="zBBQvjqYQoTLJ-VpjZjz-68" value="" style="ellipse;whiteSpace=wrap;html=1;aspect=fixed;" vertex="1" parent="1">
          <mxGeometry x="770" y="790" width="40" height="40" as="geometry" />
        </mxCell>
        <mxCell id="zBBQvjqYQoTLJ-VpjZjz-71" style="edgeStyle=orthogonalEdgeStyle;rounded=0;orthogonalLoop=1;jettySize=auto;html=1;exitX=0.5;exitY=1;exitDx=0;exitDy=0;entryX=0.5;entryY=0;entryDx=0;entryDy=0;" edge="1" parent="1" source="zBBQvjqYQoTLJ-VpjZjz-69" target="zBBQvjqYQoTLJ-VpjZjz-68">
          <mxGeometry relative="1" as="geometry" />
        </mxCell>
        <mxCell id="zBBQvjqYQoTLJ-VpjZjz-69" value="" style="ellipse;whiteSpace=wrap;html=1;aspect=fixed;" vertex="1" parent="1">
          <mxGeometry x="770" y="470" width="40" height="40" as="geometry" />
        </mxCell>
        <mxCell id="zBBQvjqYQoTLJ-VpjZjz-79" style="edgeStyle=orthogonalEdgeStyle;rounded=0;orthogonalLoop=1;jettySize=auto;html=1;exitX=0.5;exitY=1;exitDx=0;exitDy=0;entryX=0.5;entryY=0;entryDx=0;entryDy=0;entryPerimeter=0;" edge="1" parent="1" source="zBBQvjqYQoTLJ-VpjZjz-64" target="stop-final">
          <mxGeometry relative="1" as="geometry" />
        </mxCell>
      </root>
    </mxGraphModel>
  </diagram>
</mxfile>
